<?xml version="1.0" encoding="utf-8"?>
<!-- Generator: Adobe Illustrator 23.0.3, SVG Export Plug-In . SVG Version: 6.00 Build 0)  -->
<svg version="1.1" xmlns="http://www.w3.org/2000/svg" xmlns:xlink="http://www.w3.org/1999/xlink" x="0px" y="0px"
	 viewBox="0 0 24 24" style="enable-background:new 0 0 24 24;" xml:space="preserve">
<style type="text/css">
	.st0{fill:#2E4049;}
	.st1{fill:#70757B;}
	.st2{fill:#A7AFB5;}
	.st3{fill:#34373A;}
	.st4{fill:none;}
	.st5{fill:#FFE448;}
	.st6{fill:#F48B00;}
	.st7{display:none;fill:#FFE448;}
	.st8{fill:none;stroke:#34373A;stroke-width:0.25;stroke-miterlimit:10;}
	.st9{fill:#F4C356;}
	.st10{fill:#FFFFFF;}
	.st11{fill:#5E5E5E;}
	.st12{fill:#868687;}
	.st13{fill:#64899B;}
	.st14{fill:#B9CCD6;}
	.st15{fill:#69777F;}
	.st16{fill:#8499A3;}
	.st17{fill:#ADCDE0;}
	.st18{fill:#577593;}
	.st19{fill:#C0D9E2;}
	.st20{fill:#316A82;}
	.st21{fill:#606060;}
	.st22{opacity:0.83;fill:#577593;}
	.st23{fill:#878787;}
	.st24{fill:#8D9AA0;}
</style>
<g id="PartlyCloudy">
	<g id="YellowRays_1">
		<path class="st5" d="M3.05,11.52c1.24-0.24,2.48-0.49,3.76-0.74c0,0.47,0,0.9,0,1.34c0,0.18-0.07,0.19-0.22,0.16
			c-1.19-0.24-2.38-0.47-3.57-0.7C3.04,11.55,3.05,11.53,3.05,11.52z"/>
		<path class="st5" d="M20.8,11.57c-1.19,0.23-2.38,0.46-3.57,0.7c-0.15,0.03-0.23,0.03-0.22-0.15c0.01-0.44,0-0.88,0-1.35
			c1.29,0.25,2.54,0.5,3.79,0.75C20.8,11.54,20.8,11.55,20.8,11.57z"/>
		<path class="st5" d="M10.01,6.71c-0.4,0.3-0.87,0.74-1.23,0.68C8.42,7.34,8.43,6.63,8.27,6.22C8.04,5.62,7.84,5.01,7.64,4.4
			C7.59,4.27,7.5,4.14,7.57,3.92C8.4,4.87,9.2,5.79,10.01,6.71z"/>
		<path class="st5" d="M13.8,6.74c0.83-0.95,1.63-1.87,2.47-2.83c0.04,0.29-0.08,0.46-0.14,0.64c-0.3,0.9-0.61,1.79-0.91,2.69
			c-0.07,0.21-0.14,0.26-0.34,0.13C14.56,7.15,14.2,6.97,13.8,6.74z"/>
		<path class="st5" d="M8.7,15.58c0.46,0.27,0.88,0.51,1.33,0.77C9.21,17.3,8.4,18.22,7.6,19.14c-0.03-0.02-0.06-0.03-0.09-0.05
			C7.9,17.94,8.29,16.78,8.7,15.58z"/>
		<path class="st5" d="M16.26,19.16c-0.82-0.94-1.63-1.86-2.44-2.79c0.03-0.03,0.05-0.05,0.07-0.06c0.41-0.23,0.81-0.46,1.22-0.69
			c0.22,0.39,0.31,0.83,0.46,1.25c0.22,0.6,0.42,1.21,0.62,1.81C16.24,18.82,16.34,18.95,16.26,19.16z"/>
	</g>
	<g id="OrangeRays_1">
		<path class="st6" d="M11.92,20.55c-0.26-1.32-0.5-2.51-0.74-3.71c-0.04-0.18,0.06-0.2,0.2-0.2c0.36,0,0.72,0.01,1.08,0
			c0.17,0,0.24,0.05,0.2,0.23C12.41,18.06,12.18,19.25,11.92,20.55z"/>
		<path class="st6" d="M11.95,2.67c0.23,1.17,0.45,2.35,0.69,3.52c0.04,0.21-0.01,0.26-0.21,0.25c-0.41-0.02-0.96,0.17-1.2-0.07
			c-0.22-0.22,0.07-0.74,0.14-1.12c0.16-0.86,0.33-1.72,0.5-2.58C11.91,2.67,11.93,2.67,11.95,2.67z"/>
		<path class="st6" d="M4.32,7.2c0.21-0.08,0.34,0.02,0.47,0.06C5.7,7.57,6.62,7.91,7.54,8.2C7.85,8.3,7.88,8.41,7.7,8.65
			C7.6,8.78,7.54,8.93,7.46,9.06c-0.35,0.6-0.35,0.6-0.86,0.15C5.94,8.65,5.29,8.08,4.64,7.51C4.53,7.41,4.43,7.31,4.32,7.2z"/>
		<path class="st6" d="M15.95,8.32c1.19-0.4,2.34-0.8,3.59-1.23c-0.25,0.38-0.53,0.55-0.77,0.77c-0.62,0.55-1.25,1.08-1.86,1.63
			c-0.14,0.12-0.21,0.15-0.32-0.04C16.41,9.09,16.19,8.74,15.95,8.32z"/>
		<path class="st6" d="M4.31,15.88c0.94-0.82,1.86-1.62,2.77-2.42c0.04,0.03,0.06,0.04,0.08,0.06c0.23,0.4,0.45,0.81,0.68,1.22
			C7.45,14.97,7,15.05,6.59,15.21c-0.6,0.22-1.2,0.42-1.81,0.63C4.65,15.87,4.52,15.98,4.31,15.88z"/>
		<path class="st6" d="M16.72,13.43c0.95,0.83,1.87,1.63,2.81,2.45c-0.2,0.09-0.32,0-0.44-0.04c-0.95-0.32-1.89-0.65-2.83-0.96
			c-0.26-0.08-0.3-0.17-0.14-0.4C16.33,14.16,16.5,13.81,16.72,13.43z"/>
	</g>
	<g id="SunBody_1_">
		<path class="st6" d="M16.27,11.61c0,2.06-1.43,3.77-3.34,4.22c1.53-0.67,2.59-2.2,2.59-3.97c0-2.41-1.94-4.35-4.35-4.35
			c-0.35,0-0.69,0.04-1.01,0.12c0.54-0.24,1.14-0.37,1.76-0.37C14.32,7.26,16.27,9.21,16.27,11.61z"/>
		<path class="st5" d="M15.51,11.86c0,1.78-1.06,3.3-2.59,3.97c-0.32,0.08-0.66,0.12-1.01,0.12c-2.4,0-4.35-1.94-4.35-4.35
			c0-1.78,1.06-3.3,2.59-3.97c0.32-0.08,0.66-0.12,1.01-0.12C13.57,7.51,15.51,9.45,15.51,11.86z"/>
		<g id="Eyes_2">
			<circle class="st3" cx="10.43" cy="10.87" r="0.56"/>
			<circle class="st3" cx="13.4" cy="10.87" r="0.56"/>
		</g>
		<path class="st3" d="M12.83,12.79v0.03c0,0.4-0.41,0.73-0.92,0.73s-0.93-0.33-0.93-0.73v-0.03c0-0.4,0.42-0.73,0.93-0.73
			S12.83,12.4,12.83,12.79z"/>
	</g>
	<g id="cloudleft">
		<g>
			<path class="st12" d="M7.23,16.53c0,0.34-0.14,0.67-0.37,0.9c-0.13,0.14-0.3,0.24-0.49,0.3H5.62c0.19-0.06,0.36-0.16,0.49-0.3
				c0.23-0.23,0.37-0.56,0.37-0.9c0-0.59-0.4-1.09-0.93-1.24c-0.08-0.51-0.41-0.95-0.86-1.16c0.08-0.05,0.17-0.09,0.27-0.12h0.01
				c0.68,0.06,1.24,0.6,1.33,1.28C6.83,15.44,7.23,15.94,7.23,16.53z"/>
			<path class="st2" d="M6.48,16.53c0,0.34-0.14,0.67-0.37,0.9c-0.13,0.14-0.3,0.24-0.49,0.3H1.5c-0.51,0-0.97-0.3-1.18-0.73
				c-0.14-0.21-0.2-0.46-0.2-0.72c0-0.56,0.35-1.04,0.84-1.21c0.07-0.03,0.13-0.05,0.2-0.06c0.08-0.01,0.16-0.02,0.25-0.02
				c0.12,0,0.24,0.01,0.35,0.05c-0.01-0.05-0.01-0.09-0.01-0.13c0-0.65,0.41-1.19,1-1.39c0.04-0.01,0.07-0.03,0.11-0.03
				c0.12-0.04,0.24-0.06,0.37-0.06c0.5,0,0.94,0.25,1.21,0.62c0.01,0,0.01,0.01,0.01,0.01c0.03,0.05,0.06,0.11,0.1,0.16
				c0.04-0.03,0.09-0.06,0.14-0.09c0.45,0.21,0.78,0.65,0.86,1.16C6.08,15.44,6.48,15.94,6.48,16.53z"/>
		</g>
	</g>
	<g id="cloudright">
		<path class="st2" d="M23.35,12.25c0,0.3-0.08,0.58-0.23,0.81c-0.1,0.21-0.25,0.39-0.44,0.52c0.15-0.23,0.22-0.5,0.22-0.8
			c0-0.62-0.39-1.16-0.95-1.36c-0.07-0.03-0.14-0.05-0.22-0.06c-0.09-0.02-0.18-0.03-0.28-0.03c-0.13,0-0.26,0.02-0.39,0.05
			c0.01-0.05,0.01-0.09,0.01-0.14c0-0.72-0.46-1.34-1.12-1.56c-0.17-0.07-0.35-0.1-0.55-0.1c-0.56,0-1.06,0.28-1.36,0.71
			c-0.04,0.06-0.08,0.12-0.12,0.17c-0.13-0.1-0.28-0.18-0.45-0.23c-0.01,0-0.02,0-0.02,0c-0.34,0.03-0.65,0.16-0.89,0.37
			c0.26-0.5,0.75-0.85,1.34-0.9c0,0,0,0,0.01,0c0.17,0.05,0.32,0.13,0.46,0.23c0.04-0.06,0.07-0.12,0.11-0.18
			c0.3-0.42,0.8-0.7,1.37-0.7c0.19,0,0.37,0.03,0.54,0.09c0.66,0.23,1.12,0.84,1.12,1.57v0.14c0.12-0.03,0.25-0.05,0.39-0.05
			c0.09,0,0.19,0.01,0.28,0.03c0.07,0.01,0.14,0.03,0.22,0.06C22.95,11.09,23.35,11.63,23.35,12.25z"/>
		<path class="st12" d="M22.9,12.78c0,0.3-0.07,0.57-0.22,0.8v0.01c-0.25,0.19-0.55,0.3-0.88,0.3h-5.49
			c-0.2-0.08-0.39-0.19-0.54-0.35c-0.26-0.26-0.42-0.62-0.42-1.01c0-0.23,0.05-0.44,0.15-0.63c0.12-0.25,0.31-0.46,0.55-0.6
			c0.1-0.07,0.22-0.12,0.34-0.16c0.03-0.19,0.09-0.37,0.17-0.54c0.24-0.21,0.55-0.34,0.89-0.37c0,0,0.01,0,0.02,0
			c0.17,0.05,0.32,0.13,0.45,0.23c0.04-0.05,0.08-0.11,0.12-0.17c0.3-0.43,0.8-0.71,1.36-0.71c0.2,0,0.38,0.03,0.55,0.1
			c0.66,0.22,1.12,0.84,1.12,1.56c0,0.05,0,0.09-0.01,0.14c0.13-0.03,0.26-0.05,0.39-0.05c0.1,0,0.19,0.01,0.28,0.03
			c0.08,0.01,0.15,0.03,0.22,0.06C22.51,11.62,22.9,12.16,22.9,12.78z"/>
	</g>
</g>
</svg>
