<?xml version="1.0" encoding="utf-8"?>
<!-- Generator: Adobe Illustrator 23.0.2, SVG Export Plug-In . SVG Version: 6.00 Build 0)  -->
<svg version="1.1" id="Rain" xmlns="http://www.w3.org/2000/svg" xmlns:xlink="http://www.w3.org/1999/xlink" x="0px" y="0px"
 viewBox="0 0 24 24" style="enable-background:new 0 0 24 24;" xml:space="preserve">
<style type="text/css">
.st0{fill:#2E4049;}
.st1{fill:#70757B;}
.st2{fill:#A7AFB5;}
.st3{fill:#34373A;}
.st4{fill:none;}
</style>
<g id="Tear1">
<path class="st0" d="M5.87,12.49c0,0.05,0,0.08-0.02,0.11c-0.04,0.2-0.22,0.36-0.44,0.36c-0.26,0-0.46-0.2-0.46-0.47
	c0-0.08,0.06-0.21,0.14-0.33c0,0,0-0.01,0.01-0.02c0.13-0.23,0.31-0.44,0.31-0.44S5.87,12.24,5.87,12.49z"/>
</g>
<g id="Tear2">
<path class="st0" d="M9.51,12.61c0,0.04,0,0.07-0.02,0.1c-0.04,0.21-0.22,0.36-0.44,0.36c-0.26,0-0.46-0.2-0.46-0.46
	c0-0.09,0.06-0.22,0.14-0.34c0,0,0-0.01,0.01-0.02c0.13-0.23,0.31-0.44,0.31-0.44S9.51,12.36,9.51,12.61z"/>
</g>
<g id="Tear3">
<path class="st0" d="M13.48,12.73c0,0.04,0,0.07-0.02,0.1c-0.04,0.21-0.22,0.36-0.44,0.36c-0.26,0-0.46-0.2-0.46-0.46
	c0-0.09,0.06-0.22,0.14-0.34c0,0,0-0.01,0.01-0.02c0.13-0.23,0.31-0.44,0.31-0.44S13.48,12.48,13.48,12.73z"/>
</g>
<g id="Tear4">
<path class="st0" d="M17.46,12.73c0,0.04,0,0.07-0.02,0.1c-0.04,0.21-0.22,0.36-0.44,0.36c-0.26,0-0.46-0.2-0.46-0.46
	c0-0.09,0.06-0.22,0.14-0.34c0,0,0-0.01,0.01-0.02c0.13-0.23,0.31-0.44,0.31-0.44S17.46,12.48,17.46,12.73z"/>
</g>
<g id="Cloud">
<path class="st1" d="M22.22,9.99c0,0.92-0.38,1.78-1.01,2.39c-0.62,0.63-1.47,1.01-2.39,1.01h-0.46c0.49-0.17,0.94-0.45,1.29-0.81
	c0.62-0.62,0.99-1.47,0.99-2.39c0-1.55-1.06-2.88-2.49-3.27c-0.25-1.82-1.72-3.24-3.54-3.41c0.38-0.14,0.8-0.21,1.22-0.21
	c1.97,0,3.62,1.48,3.89,3.42C21.16,7.11,22.22,8.44,22.22,9.99z"/>
<path class="st2" d="M20.64,10.19c0,0.92-0.38,1.78-0.99,2.39c-0.35,0.36-0.8,0.64-1.29,0.81H5.43c-1.34,0-2.57-0.81-3.12-1.95l0,0
	c-0.36-0.55-0.53-1.21-0.53-1.91c0-1.47,0.94-2.74,2.24-3.2c0.17-0.07,0.34-0.13,0.52-0.15c0.21-0.04,0.43-0.07,0.66-0.07
	c0.32,0,0.63,0.04,0.92,0.13C6.1,6.12,6.1,6.02,6.1,5.91c0-1.72,1.1-3.17,2.64-3.7c0.41-0.15,0.84-0.22,1.29-0.22
	c1.33,0,2.52,0.66,3.22,1.66c0.1,0.14,0.18,0.28,0.27,0.42c0.32-0.24,0.68-0.43,1.08-0.56c0.01,0,0.03,0,0.03,0
	c1.82,0.17,3.29,1.59,3.54,3.41C19.58,7.31,20.64,8.64,20.64,10.19z"/>
<g id="Eyes">
	<circle class="st3" cx="9.43" cy="8.04" r="0.84"/>
	<circle class="st3" cx="13.85" cy="8.04" r="0.84"/>
</g>
<path class="st3" d="M10.43,11.08v-0.04c0-0.63,0.58-1.15,1.29-1.15c0.71,0,1.29,0.52,1.29,1.15v0.04H10.43z"/>
</g>
<line class="st4" x1="-1.81" y1="-2.31" x2="-3.57" y2="-2.31"/>
</svg>
