<?xml version="1.0" encoding="utf-8"?>
<!-- Generator: Adobe Illustrator 23.0.3, SVG Export Plug-In . SVG Version: 6.00 Build 0)  -->
<svg class="circle-night" version="1.1" xmlns="http://www.w3.org/2000/svg" xmlns:xlink="http://www.w3.org/1999/xlink" x="0px" y="0px"
	 viewBox="0 0 24 24" style="enable-background:new 0 0 24 24;" xml:space="preserve">
<style type="text/css">
	.st0{fill:#2E4049;}
	.st1{fill:#70757B;}
	.st2{fill:#A7AFB5;}
	.st3{fill:#34373A;}
	.st4{fill:none;}
	.st5{fill:#FFE448;}
	.st6{fill:#F48B00;}
	.st7{display:none;fill:#FFE448;}
	.st8{fill:none;stroke:#34373A;stroke-width:0.25;stroke-miterlimit:10;}
	.st9{fill:#F4C356;}
	.st10{fill:#FFFFFF;}
	.st11{fill:#5E5E5E;}
	.st12{fill:#868687;}
	.st13{fill:#64899B;}
	.st14{fill:#B9CCD6;}
	.st15{fill:#69777F;}
	.st16{fill:#8499A3;}
	.st17{fill:#ADCDE0;}
	.st18{fill:#577593;}
	.st19{fill:#C0D9E2;}
	.st20{fill:#316A82;}
	.st21{fill:#606060;}
	.st22{opacity:0.83;fill:#577593;}
	.st23{fill:#878787;}
	.st24{fill:#8D9AA0;}
</style>
<g id="ClearNight">
	<g id="Stars">
		<polygon id="star1" class="st9" points="15.81,4.99 16.28,4.4 16.52,5.12 17.11,5.6 16.39,5.84 15.91,6.43 15.67,5.71 15.08,5.23 		"/>
		<polygon id="star2" class="st9" points="20.32,7.49 21.71,6.96 21.4,8.42 21.93,9.81 20.47,9.5 19.08,10.03 19.39,8.57 18.86,7.18 		"/>
		<polygon id="star3" class="st9" points="15.16,9.23 15.52,8.86 15.64,9.36 16.01,9.72 15.5,9.84 15.14,10.21 15.02,9.71 14.65,9.34 		"/>
	</g>
	<g id="zzz">
		<g>
			<path class="st10" d="M11.42,13.47l-0.67,0.89l0.7,0l0,0.15l-0.94,0l0-0.12l0.67-0.89l-0.64,0l0-0.15l0.88,0L11.42,13.47z"/>
		</g>
		<g>
			<path class="st10" d="M10.05,14.69l-0.51,0.58l0.49,0.03l-0.01,0.1l-0.65-0.04l0.01-0.08l0.51-0.58l-0.45-0.03l0.01-0.1
				l0.61,0.04L10.05,14.69z"/>
		</g>
		<g>
			<path class="st10" d="M9.25,15.96l-0.29,0.6l0.41-0.08l0.02,0.09l-0.54,0.11l-0.01-0.07l0.29-0.6l-0.37,0.08L8.73,16l0.51-0.1
				L9.25,15.96z"/>
		</g>
	</g>
	<g id="Moon">
		<path class="st3" d="M20.06,15.34c-0.01,0.05-0.02,0.11-0.03,0.16c-0.07,0.08-0.15,0.16-0.21,0.25c-0.34,0.56-0.72,1.06-1.14,1.5
			c-1.32,1.37-3.01,2.19-4.96,2.6c-0.72,0.14-1.47,0.06-2.21,0.08c-0.55-0.11-1.1-0.23-1.64-0.35c-0.45-0.2-0.89-0.41-1.31-0.65
			c0.11,0.05,0.22,0.1,0.33,0.15c0.54,0.12,1.09,0.24,1.64,0.35c0.74-0.02,1.49,0.06,2.21-0.08c1.95-0.41,3.64-1.23,4.96-2.6
			c0.32-0.33,0.61-0.69,0.88-1.09C19.07,15.61,19.57,15.5,20.06,15.34z"/>
		<path class="st11" d="M18.58,15.66c-0.27,0.4-0.56,0.76-0.88,1.09c-1.32,1.37-3.01,2.19-4.96,2.6c-0.72,0.14-1.47,0.06-2.21,0.08
			c-0.55-0.11-1.1-0.23-1.64-0.35c-0.11-0.05-0.22-0.1-0.33-0.15c-0.02-0.01-0.03-0.02-0.04-0.02c-0.42-0.23-0.82-0.48-1.2-0.78
			c-1.17-0.91-2.04-2.06-2.61-3.33c-0.52-1.17-0.78-2.43-0.77-3.7c0.03-1.64,0.53-3.29,1.53-4.73c1.03-1.47,2.34-2.5,3.91-3.1
			c0.32-0.13,0.66-0.24,1.01-0.32c0.26-0.08,0.53-0.13,0.81-0.18c0.21-0.04,0.41-0.09,0.61-0.13c0.05,0.01,0.11,0.03,0.16,0.04
			c-0.48,0.55-0.88,1.14-1.19,1.76c-0.57,1.12-0.86,2.33-0.86,3.54c0,1.03,0.21,2.06,0.63,3.04c0.17,0.39,0.37,0.76,0.6,1.13
			c0.65,1.01,1.53,1.87,2.55,2.47c1.06,0.65,2.29,1.03,3.58,1.09C17.7,15.73,18.14,15.72,18.58,15.66z"/>
		<circle class="st8" cx="7.3" cy="10.72" r="1.01"/>

			<rect x="5.08" y="8.92" transform="matrix(0.9608 -0.2773 0.2773 0.9608 -2.4781 2.3516)" class="st11" width="3.99" height="2.04"/>
		<circle class="st3" cx="10.26" cy="13.57" r="0.76"/>
	</g>
</g>
</svg>
