<?xml version="1.0" encoding="utf-8"?>
<!-- Generator: Adobe Illustrator 23.0.3, SVG Export Plug-In . SVG Version: 6.00 Build 0)  -->
<svg id="circle-sun" version="1.1" xmlns="http://www.w3.org/2000/svg" xmlns:xlink="http://www.w3.org/1999/xlink" x="0px" y="0px"
   viewBox="0 0 24 24" style="enable-background:new 0 0 24 24;" xml:space="preserve">
<style type="text/css">
  .st0{fill:#2E4049;}
  .st1{fill:#70757B;}
  .st2{fill:#A7AFB5;}
  .st3{fill:#34373A;}
  .st4{fill:none;}
  .st5{fill:#FFE448;}
  .st6{fill:#F48B00;}
  .st7{display:none;fill:#FFE448;}
  .st8{fill:none;stroke:#34373A;stroke-width:0.25;stroke-miterlimit:10;}
  .st9{fill:#5E5E5E;}
  .st10{fill:#F4C356;}
  .st11{fill:#868687;}
  .st12{fill:#64899B;}
  .st13{fill:#B9CCD6;}
  .st14{fill:#69777F;}
  .st15{fill:#8499A3;}
  .st16{fill:#ADCDE0;}
  .st17{fill:#577593;}
  .st18{fill:#C0D9E2;}
  .st19{fill:#316A82;}
  .st20{fill:#606060;}
  .st21{opacity:0.83;fill:#577593;}
  .st22{fill:#878787;}
  .st23{fill:#8D9AA0;}
</style>
<g id="Sun">
  <g id="YellowRays">
    <path class="st5" d="M1.17,11.59c1.5-0.29,2.99-0.59,4.54-0.89c0,0.56-0.01,1.09,0,1.62c0,0.21-0.08,0.22-0.27,0.19
      c-1.43-0.29-2.87-0.57-4.3-0.85C1.15,11.63,1.16,11.61,1.17,11.59z"/>
    <path class="st5" d="M22.56,11.65c-1.43,0.28-2.87,0.56-4.3,0.85c-0.18,0.04-0.27,0.04-0.27-0.18c0.01-0.53,0-1.06,0-1.62
      c1.55,0.31,3.06,0.6,4.57,0.9C22.56,11.61,22.56,11.63,22.56,11.65z"/>
    <path class="st5" d="M9.55,5.8C9.07,6.16,8.51,6.68,8.06,6.62C7.63,6.56,7.64,5.7,7.45,5.2C7.17,4.48,6.93,3.75,6.69,3.01
      C6.64,2.85,6.53,2.7,6.61,2.43C7.61,3.58,8.58,4.69,9.55,5.8z"/>
    <path class="st5" d="M14.12,5.82c1-1.14,1.97-2.25,2.98-3.41c0.05,0.34-0.09,0.55-0.17,0.78c-0.36,1.08-0.74,2.16-1.09,3.24
      c-0.08,0.26-0.17,0.32-0.42,0.15C15.03,6.32,14.6,6.1,14.12,5.82z"/>
    <path class="st5" d="M7.97,16.49c0.55,0.32,1.07,0.62,1.61,0.93c-0.99,1.13-1.96,2.24-2.93,3.35c-0.04-0.02-0.07-0.04-0.11-0.06
      C7,19.32,7.48,17.93,7.97,16.49z"/>
    <path class="st5" d="M17.08,20.8c-0.99-1.14-1.96-2.24-2.94-3.36c0.04-0.04,0.06-0.06,0.09-0.08c0.49-0.28,0.98-0.55,1.47-0.83
      c0.26,0.48,0.38,1.01,0.56,1.51c0.26,0.73,0.51,1.45,0.75,2.19C17.06,20.39,17.18,20.55,17.08,20.8z"/>
  </g>
  <g id="OrangeRays">
    <path class="st6" d="M11.85,22.48c-0.32-1.59-0.61-3.03-0.9-4.47c-0.04-0.21,0.07-0.24,0.24-0.24c0.43,0,0.87,0.01,1.3,0
      c0.21,0,0.29,0.06,0.24,0.28C12.45,19.47,12.16,20.9,11.85,22.48z"/>
    <path class="st6" d="M11.89,0.93c0.28,1.42,0.54,2.83,0.83,4.25c0.05,0.26-0.02,0.32-0.25,0.3c-0.5-0.03-1.15,0.2-1.44-0.09
      c-0.27-0.27,0.09-0.89,0.17-1.35c0.19-1.04,0.4-2.08,0.6-3.11C11.84,0.92,11.86,0.93,11.89,0.93z"/>
    <path class="st6" d="M2.69,6.38C2.93,6.29,3.09,6.4,3.25,6.46c1.11,0.37,2.21,0.78,3.32,1.13c0.38,0.12,0.41,0.25,0.19,0.54
      c-0.12,0.15-0.19,0.33-0.29,0.5C6.05,9.35,6.05,9.35,5.43,8.81C4.65,8.13,3.86,7.44,3.08,6.75C2.95,6.64,2.83,6.52,2.69,6.38z"/>
    <path class="st6" d="M16.71,7.74c1.43-0.49,2.82-0.96,4.33-1.48c-0.3,0.45-0.63,0.67-0.93,0.92c-0.75,0.66-1.5,1.31-2.25,1.97
      C17.7,9.3,17.61,9.34,17.49,9.1C17.26,8.66,17,8.24,16.71,7.74z"/>
    <path class="st6" d="M2.68,16.84c1.13-0.99,2.24-1.95,3.34-2.92C6.07,13.96,6.1,13.98,6.11,14c0.28,0.49,0.55,0.98,0.82,1.47
      c-0.47,0.28-1.01,0.38-1.51,0.57c-0.72,0.26-1.45,0.51-2.18,0.75C3.08,16.84,2.93,16.96,2.68,16.84z"/>
    <path class="st6" d="M17.64,13.89c1.15,1,2.25,1.97,3.38,2.96c-0.24,0.1-0.38,0-0.53-0.05c-1.14-0.38-2.27-0.78-3.42-1.16
      c-0.31-0.1-0.36-0.2-0.17-0.48C17.16,14.77,17.38,14.35,17.64,13.89z"/>
  </g>
  <rect x="9.21" y="10.81" class="st7" width="1.66" height="0.89"/>
  <g id="SunBody">
    <path class="st6" d="M17.09,11.7c0,2.48-1.72,4.55-4.03,5.09c1.84-0.81,3.12-2.65,3.12-4.79c0-2.9-2.34-5.24-5.24-5.24
      c-0.42,0-0.83,0.05-1.22,0.15c0.65-0.29,1.37-0.45,2.12-0.45C14.74,6.46,17.09,8.8,17.09,11.7z"/>
    <path class="st5" d="M16.18,12c0,2.14-1.28,3.98-3.12,4.79c-0.39,0.1-0.8,0.15-1.22,0.15c-2.89,0-5.24-2.34-5.24-5.24
      c0-2.14,1.28-3.98,3.12-4.79c0.39-0.1,0.8-0.15,1.22-0.15C13.84,6.76,16.18,9.1,16.18,12z"/>
    <g id="Eyes_1_">
      <circle class="st8" cx="10.06" cy="10.81" r="0.68"/>
      <circle class="st8" cx="13.64" cy="10.81" r="0.68"/>
    </g>
    <rect x="8.93" y="10.81" class="st5" width="5.98" height="0.89"/>
    <path class="st3" d="M13.35,12.96v0.03c0,0.51-0.61,0.93-1.35,0.93s-1.35-0.42-1.35-0.93v-0.03H13.35z"/>
  </g>
</g>

</svg>
