<?xml version="1.0" encoding="utf-8"?>
<!-- Generator: Adobe Illustrator 23.0.3, SVG Export Plug-In . SVG Version: 6.00 Build 0)  -->
<svg version="1.1" xmlns="http://www.w3.org/2000/svg" xmlns:xlink="http://www.w3.org/1999/xlink" x="0px" y="0px"
	 viewBox="0 0 24 24" style="enable-background:new 0 0 24 24;" xml:space="preserve">
<style type="text/css">
	.st0{fill:#2E4049;}
	.st1{fill:#70757B;}
	.st2{fill:#A7AFB5;}
	.st3{fill:#34373A;}
	.st4{fill:none;}
	.st5{fill:#FFE448;}
	.st6{fill:#F48B00;}
	.st7{display:none;fill:#FFE448;}
	.st8{fill:none;stroke:#34373A;stroke-width:0.25;stroke-miterlimit:10;}
	.st9{fill:#F4C356;}
	.st10{fill:#FFFFFF;}
	.st11{fill:#5E5E5E;}
	.st12{fill:#6EA09F;}
	.st13{fill:#868687;}
	.st14{fill:#64899B;}
	.st15{fill:#B9CCD6;}
	.st16{fill:#69777F;}
	.st17{fill:#8499A3;}
	.st18{fill:#ADCDE0;}
	.st19{fill:#577593;}
	.st20{fill:#C0D9E2;}
	.st21{fill:#316A82;}
	.st22{fill:#606060;}
	.st23{opacity:0.83;fill:#577593;}
	.st24{fill:#878787;}
	.st25{fill:#8D9AA0;}
</style>
<g id="Fog">
	<g id="Cloud_4_">
		<path class="st19" d="M21.14,12.74c0,0.82-0.34,1.59-0.9,2.14c-0.55,0.56-1.32,0.9-2.14,0.9h-0.41c0.44-0.15,0.84-0.4,1.15-0.72
			c0.55-0.55,0.89-1.32,0.89-2.14c0-1.39-0.95-2.58-2.23-2.93c-0.22-1.63-1.54-2.9-3.17-3.05c0.34-0.13,0.72-0.19,1.09-0.19
			c1.76,0,3.24,1.32,3.48,3.06C20.2,10.16,21.14,11.35,21.14,12.74z"/>
		<path class="st20" d="M19.73,12.92c0,0.82-0.34,1.59-0.89,2.14c-0.31,0.32-0.72,0.57-1.15,0.72H6.12c-1.2,0-2.3-0.72-2.79-1.74
			l0,0c-0.32-0.49-0.47-1.08-0.47-1.71c0-1.32,0.84-2.45,2-2.86c0.15-0.06,0.3-0.12,0.47-0.13C5.51,9.3,5.71,9.27,5.92,9.27
			c0.29,0,0.56,0.04,0.82,0.12c-0.02-0.11-0.02-0.2-0.02-0.3c0-1.54,0.98-2.84,2.36-3.31c0.37-0.13,0.75-0.2,1.15-0.2
			c1.19,0,2.25,0.59,2.88,1.49c0.09,0.13,0.16,0.25,0.24,0.38c0.29-0.21,0.61-0.38,0.97-0.5c0.01,0,0.03,0,0.03,0
			c1.63,0.15,2.94,1.42,3.17,3.05C18.78,10.34,19.73,11.53,19.73,12.92z"/>
		<g id="Eyes_7_">
			<circle class="st3" cx="10.06" cy="10.9" r="0.75"/>
			<circle class="st3" cx="14.02" cy="10.91" r="0.75"/>

				<ellipse id="fmouth" transform="matrix(2.079759e-03 -1 1 2.079759e-03 -1.3504 24.9638)" class="st3" cx="11.83" cy="13.16" rx="0.75" ry="1.3"/>
		</g>
	</g>
	<path id="fog3" class="st23" d="M11.67,13.25h-7.1c-0.43,0-0.77-0.35-0.77-0.77v-0.19c0-0.43,0.35-0.77,0.77-0.77h7.1
		c0.43,0,0.77,0.35,0.77,0.77v0.19C12.44,12.9,12.09,13.25,11.67,13.25z"/>
	<path id="fog2" class="st23" d="M10.38,15.4H1.3c-0.43,0-0.77-0.35-0.77-0.77v-0.15c0-0.43,0.35-0.77,0.77-0.77h9.08
		c0.43,0,0.77,0.35,0.77,0.77v0.15C11.16,15.05,10.81,15.4,10.38,15.4z"/>
	<path id="fog1" class="st23" d="M7.74,11.15H1.87c-0.43,0-0.77-0.35-0.77-0.77v-0.19c0-0.43,0.35-0.77,0.77-0.77h5.87
		c0.43,0,0.77,0.35,0.77,0.77v0.19C8.51,10.81,8.16,11.15,7.74,11.15z"/>
</g>
</svg>
