<?xml version="1.0" encoding="utf-8"?>
<!-- Generator: Adobe Illustrator 23.0.3, SVG Export Plug-In . SVG Version: 6.00 Build 0)  -->
<svg class="circle-night" version="1.1" xmlns="http://www.w3.org/2000/svg" xmlns:xlink="http://www.w3.org/1999/xlink" x="0px" y="0px"
	 viewBox="0 0 24 24" style="enable-background:new 0 0 24 24;" xml:space="preserve">
<style type="text/css">
	.st0{fill:#2E4049;}
	.st1{fill:#70757B;}
	.st2{fill:#A7AFB5;}
	.st3{fill:#34373A;}
	.st4{fill:none;}
	.st5{fill:#FFE448;}
	.st6{fill:#F48B00;}
	.st7{display:none;fill:#FFE448;}
	.st8{fill:none;stroke:#34373A;stroke-width:0.25;stroke-miterlimit:10;}
	.st9{fill:#F4C356;}
	.st10{fill:#FFFFFF;}
	.st11{fill:#5E5E5E;}
	.st12{fill:#868687;}
	.st13{fill:#64899B;}
	.st14{fill:#B9CCD6;}
	.st15{fill:#69777F;}
	.st16{fill:#8499A3;}
	.st17{fill:#ADCDE0;}
	.st18{fill:#577593;}
	.st19{fill:#C0D9E2;}
	.st20{fill:#316A82;}
	.st21{fill:#606060;}
	.st22{opacity:0.83;fill:#577593;}
	.st23{fill:#878787;}
	.st24{fill:#8D9AA0;}
</style>
<g id="CloudyNight">
	<g id="zzz_2">
		<g>
			<path class="st10" d="M10.48,13.47l-0.67,0.89l0.7,0l0,0.15l-0.94,0l0-0.12l0.67-0.89l-0.64,0l0-0.15l0.88,0L10.48,13.47z"/>
		</g>
		<g>
			<path class="st10" d="M9.12,14.68l-0.51,0.58l0.49,0.03l-0.01,0.1l-0.65-0.04l0.01-0.08l0.51-0.58l-0.45-0.03l0.01-0.1l0.61,0.04
				L9.12,14.68z"/>
		</g>
		<g>
			<path class="st10" d="M8.32,15.96l-0.29,0.6l0.41-0.08l0.02,0.09l-0.54,0.11L7.9,16.6l0.29-0.6l-0.37,0.08L7.8,16l0.51-0.1
				L8.32,15.96z"/>
		</g>
	</g>
	<g id="Moon_2_">
		<path class="st3" d="M19.13,15.34c-0.01,0.05-0.02,0.11-0.03,0.16c-0.07,0.08-0.15,0.16-0.21,0.25c-0.34,0.56-0.72,1.06-1.14,1.5
			c-1.32,1.37-3.01,2.19-4.96,2.6c-0.72,0.14-1.47,0.06-2.21,0.08c-0.55-0.11-1.1-0.23-1.64-0.35c-0.45-0.2-0.89-0.41-1.31-0.65
			c0.11,0.05,0.22,0.1,0.33,0.15c0.54,0.12,1.09,0.24,1.64,0.35c0.74-0.02,1.49,0.06,2.21-0.08c1.95-0.41,3.64-1.23,4.96-2.6
			c0.32-0.33,0.61-0.69,0.88-1.09C18.14,15.61,18.64,15.5,19.13,15.34z"/>
		<path class="st11" d="M17.65,15.66c-0.27,0.4-0.56,0.76-0.88,1.09c-1.32,1.37-3.01,2.19-4.96,2.6c-0.72,0.14-1.47,0.06-2.21,0.08
			c-0.55-0.11-1.1-0.23-1.64-0.35c-0.11-0.05-0.22-0.1-0.33-0.15c-0.02-0.01-0.03-0.02-0.04-0.02c-0.42-0.23-0.82-0.48-1.2-0.78
			c-1.17-0.91-2.04-2.06-2.61-3.33C3.26,13.63,3,12.37,3.01,11.1c0.03-1.64,0.53-3.29,1.53-4.73c1.03-1.47,2.34-2.5,3.91-3.1
			c0.32-0.13,0.66-0.24,1.01-0.32c0.26-0.08,0.53-0.13,0.81-0.18c0.21-0.04,0.41-0.09,0.61-0.13c0.05,0.01,0.11,0.03,0.16,0.04
			c-0.48,0.55-0.88,1.14-1.19,1.76C9.28,5.56,8.99,6.77,8.99,7.98c0,1.03,0.21,2.06,0.63,3.04c0.17,0.39,0.37,0.76,0.6,1.13
			c0.65,1.01,1.53,1.87,2.55,2.47c1.06,0.65,2.29,1.03,3.58,1.09C16.77,15.73,17.21,15.72,17.65,15.66z"/>
		<circle class="st8" cx="6.36" cy="10.71" r="1.01"/>

			<rect x="4.14" y="8.92" transform="matrix(0.9608 -0.2773 0.2773 0.9608 -2.5141 2.0922)" class="st11" width="3.99" height="2.04"/>
		<circle class="st3" cx="9.33" cy="13.57" r="0.76"/>
	</g>
	<g id="Stars_2">
		<polygon class="st9" points="14.87,4.99 15.35,4.4 15.59,5.12 16.18,5.6 15.46,5.84 14.98,6.43 14.74,5.71 14.15,5.23 		"/>
		<polygon class="st9" points="19.38,7.48 20.78,6.96 20.47,8.42 20.99,9.81 19.53,9.5 18.14,10.02 18.45,8.57 17.93,7.17 		"/>
		<polygon class="st9" points="14.22,9.22 14.58,8.85 14.7,9.36 15.07,9.72 14.57,9.84 14.2,10.21 14.09,9.7 13.71,9.34 		"/>
	</g>
	<g id="clouds">
		<path id="n-cloud1" class="st2" d="M9.33,17.84c0,0.35-0.14,0.67-0.37,0.9c-0.13,0.14-0.3,0.24-0.49,0.31H3.59c-0.51,0-0.97-0.31-1.18-0.74l0,0
			c-0.14-0.21-0.2-0.46-0.2-0.72c0-0.55,0.35-1.03,0.85-1.21c0.06-0.03,0.13-0.05,0.2-0.06c0.08-0.02,0.16-0.03,0.25-0.03
			c0.12,0,0.24,0.02,0.35,0.05c-0.01-0.05-0.01-0.08-0.01-0.12c0-0.65,0.42-1.2,1-1.4c0.15-0.06,0.32-0.08,0.49-0.08
			c0.5,0,0.95,0.25,1.21,0.63c0.04,0.05,0.07,0.11,0.1,0.16c0.12-0.09,0.26-0.16,0.41-0.21c0,0,0.01,0,0.01,0
			c0.69,0.06,1.24,0.6,1.34,1.29C8.93,16.75,9.33,17.25,9.33,17.84z"/>
		<path id="n-cloud2" class="st12" d="M6.95,19.38c0,0.35,0.14,0.67,0.37,0.9c0.13,0.14,0.3,0.24,0.49,0.31h4.88c0.51,0,0.97-0.31,1.18-0.74l0,0
			c0.14-0.21,0.2-0.46,0.2-0.72c0-0.55-0.35-1.03-0.85-1.21c-0.06-0.03-0.13-0.05-0.2-0.06c-0.08-0.02-0.16-0.03-0.25-0.03
			c-0.12,0-0.24,0.02-0.35,0.05c0.01-0.05,0.01-0.08,0.01-0.12c0-0.65-0.42-1.2-1-1.4c-0.15-0.06-0.32-0.08-0.49-0.08
			c-0.5,0-0.95,0.25-1.21,0.63c-0.04,0.05-0.07,0.11-0.1,0.16c-0.12-0.09-0.26-0.16-0.41-0.21c0,0-0.01,0-0.01,0
			c-0.69,0.06-1.24,0.6-1.34,1.29C7.35,18.29,6.95,18.79,6.95,19.38z"/>
	</g>
</g>
</svg>
