<?xml version="1.0" encoding="utf-8"?>
<!-- Generator: Adobe Illustrator 23.0.3, SVG Export Plug-In . SVG Version: 6.00 Build 0)  -->
<svg version="1.1" xmlns="http://www.w3.org/2000/svg" xmlns:xlink="http://www.w3.org/1999/xlink" x="0px" y="0px"
	 viewBox="0 0 24 24" style="enable-background:new 0 0 24 24;" xml:space="preserve">
<style type="text/css">
	.st0{fill:#2E4049;}
	.st1{fill:#70757B;}
	.st2{fill:#A7AFB5;}
	.st3{fill:#34373A;}
	.st4{fill:none;}
	.st5{fill:#FFE448;}
	.st6{fill:#F48B00;}
	.st7{display:none;fill:#FFE448;}
	.st8{fill:none;stroke:#34373A;stroke-width:0.25;stroke-miterlimit:10;}
	.st9{fill:#F4C356;}
	.st10{fill:#FFFFFF;}
	.st11{fill:#5E5E5E;}
	.st12{fill:#6EA09F;}
	.st13{fill:#868687;}
	.st14{fill:#64899B;}
	.st15{fill:#B9CCD6;}
	.st16{fill:#69777F;}
	.st17{fill:#8499A3;}
	.st18{fill:#ADCDE0;}
	.st19{fill:#577593;}
	.st20{fill:#C0D9E2;}
	.st21{fill:#316A82;}
	.st22{fill:#606060;}
	.st23{opacity:0.83;fill:#577593;}
	.st24{fill:#878787;}
	.st25{fill:#8D9AA0;}
</style>
<g id="Sleet">
	<g id="Sleets_2_">
		<rect x="10.36" y="4.99" class="st21" width="0.46" height="1.61"/>
		<rect x="14.17" y="6.3" class="st21" width="0.34" height="1.2"/>
		<rect x="18.16" y="5.08" class="st21" width="0.43" height="1.52"/>
		<rect x="6.3" y="5.87" class="st21" width="0.34" height="1.2"/>
	</g>
	<g id="flake1_1_" class="flake">
		<g>
			<path class="st14" d="M17.19,5.28l0.39-0.44l-0.1-0.08l-0.19-0.17l-0.43,0.5l-0.34-0.57l-0.34,0.2l0.34,0.57l-0.66,0.13
				l0.06,0.26l0.02,0.12l0.57-0.12l0.09-0.02l-0.06,0.55l0.3,0.03l0.07-0.66l0.63,0.27l0.12-0.28l-0.52-0.23L17.19,5.28z"/>
			<polygon class="st14" points="17.76,5.61 17.61,5.97 16.98,5.7 16.92,6.36 16.53,6.32 16.55,6.21 16.85,6.24 16.91,5.58
				17.54,5.85 17.66,5.57 			"/>
		</g>
		<g>
			<path class="st15" d="M17.06,5.28l0.39-0.44l-0.1-0.08l-0.19-0.17l-0.43,0.5l-0.34-0.57l-0.34,0.2l0.34,0.57l-0.66,0.13
				l0.06,0.26l0.02,0.12l0.57-0.12l0.09-0.02L16.42,6.2l0.3,0.03l0.07-0.66l0.63,0.27l0.12-0.28l-0.52-0.23L17.06,5.28z"/>
			<polygon class="st15" points="17.64,5.6 17.48,5.96 16.86,5.7 16.79,6.36 16.4,6.31 16.42,6.2 16.72,6.24 16.79,5.58 17.41,5.85
				17.53,5.56 			"/>
		</g>
	</g>
	<g id="flake1_4_" class="flake">
		<g>
			<path class="st14" d="M8.32,6.09l0.51-0.08L8.81,5.9L8.78,5.68L8.21,5.77L8.3,5.2L7.96,5.15L7.87,5.72L7.35,5.44l-0.1,0.21
				l-0.05,0.1l0.46,0.24l0.07,0.03L7.37,6.36l0.18,0.19l0.41-0.41l0.27,0.53l0.24-0.12L8.25,6.11L8.32,6.09z"/>
			<polygon class="st14" points="8.53,6.64 8.22,6.79 7.95,6.26 7.53,6.67 7.3,6.43 7.37,6.36 7.55,6.55 7.97,6.14 8.24,6.67
				8.48,6.55 			"/>
		</g>
		<g>
			<path class="st15" d="M8.24,6.02l0.51-0.08L8.72,5.83L8.69,5.6L8.12,5.7l0.09-0.57L7.87,5.07L7.78,5.64L7.26,5.36l-0.1,0.21
				l-0.05,0.1l0.46,0.24l0.07,0.03L7.28,6.29l0.18,0.19l0.41-0.41L8.15,6.6l0.24-0.12L8.17,6.03L8.24,6.02z"/>
			<polygon class="st15" points="8.44,6.56 8.14,6.72 7.86,6.19 7.45,6.59 7.21,6.35 7.28,6.29 7.47,6.47 7.88,6.07 8.15,6.6
				8.39,6.48 			"/>
		</g>
	</g>
	<g id="flake1_5_ " class="flake">
		<g>
			<path class="st14" d="M12.1,7.33l0.2,0.69l0.15-0.05l0.31-0.08l-0.22-0.78l0.81,0.03l0.02-0.48l-0.81-0.03l0.3-0.77l-0.31-0.11
				L12.39,5.7l-0.26,0.67l-0.04,0.1l-0.53-0.43l-0.23,0.29l0.63,0.51l-0.69,0.47l0.21,0.31l0.58-0.39L12.1,7.33z"/>
			<polygon class="st14" points="11.38,7.7 11.11,7.3 11.8,6.83 11.16,6.33 11.46,5.96 11.56,6.05 11.33,6.33 11.97,6.84
				11.28,7.31 11.49,7.62 			"/>
		</g>
		<g>
			<path class="st15" d="M12.18,7.2l0.2,0.69l0.15-0.05l0.31-0.08l-0.22-0.78l0.81,0.03l0.02-0.48L12.63,6.5l0.3-0.77l-0.31-0.11
				l-0.15-0.06l-0.26,0.67l-0.04,0.1l-0.53-0.43L11.42,6.2l0.63,0.51l-0.69,0.47l0.21,0.31l0.58-0.39L12.18,7.2z"/>
			<polygon class="st15" points="11.47,7.57 11.2,7.17 11.89,6.7 11.25,6.2 11.55,5.83 11.65,5.91 11.42,6.2 12.05,6.71 11.36,7.18
				11.57,7.49 			"/>
		</g>
	</g>
	<g id="Cloud_3_">
		<path class="st22" d="M21.21,7.72c0,0.8-0.33,1.56-0.88,2.09c-0.54,0.55-1.29,0.88-2.09,0.88h-0.4c0.43-0.15,0.82-0.39,1.13-0.71
			c0.54-0.54,0.87-1.29,0.87-2.09c0-1.36-0.93-2.52-2.18-2.86c-0.22-1.59-1.5-2.83-3.09-2.98c0.33-0.12,0.7-0.18,1.07-0.18
			c1.72,0,3.16,1.29,3.4,2.99C20.28,5.2,21.21,6.36,21.21,7.72z"/>
		<path class="st16" d="M19.83,7.89c0,0.8-0.33,1.56-0.87,2.09c-0.31,0.31-0.7,0.56-1.13,0.71H6.53c-1.17,0-2.25-0.71-2.73-1.7l0,0
			C3.49,8.51,3.34,7.93,3.34,7.32c0-1.29,0.82-2.4,1.96-2.8c0.15-0.06,0.3-0.11,0.45-0.13c0.18-0.03,0.38-0.06,0.58-0.06
			c0.28,0,0.55,0.03,0.8,0.11c-0.02-0.1-0.02-0.19-0.02-0.29c0-1.5,0.96-2.77,2.31-3.23c0.36-0.13,0.73-0.19,1.13-0.19
			c1.16,0,2.2,0.58,2.82,1.45c0.09,0.12,0.16,0.24,0.24,0.37c0.28-0.21,0.59-0.38,0.94-0.49c0.01,0,0.03,0,0.03,0
			c1.59,0.15,2.88,1.39,3.09,2.98C18.9,5.38,19.83,6.54,19.83,7.89z"/>
		<g id="Eyes_4_">
			<circle class="st3" cx="10.03" cy="6.01" r="0.73"/>
			<circle class="st3" cx="13.89" cy="6.01" r="0.73"/>
		</g>
		<path class="st3" d="M10.9,8.67V8.64c0-0.55,0.51-1.01,1.13-1.01c0.62,0,1.13,0.45,1.13,1.01v0.03H10.9z"/>
	</g>
</g>
</svg>
