<?xml version="1.0" encoding="utf-8"?>
<!-- Generator: Adobe Illustrator 23.0.3, SVG Export Plug-In . SVG Version: 6.00 Build 0)  -->
<svg id="circle-snow" version="1.1" xmlns="http://www.w3.org/2000/svg" xmlns:xlink="http://www.w3.org/1999/xlink" x="0px" y="0px"
	 viewBox="0 0 24 24" style="enable-background:new 0 0 24 24;" xml:space="preserve">
<style type="text/css">
	.st0{fill:#2E4049;}
	.st1{fill:#70757B;}
	.st2{fill:#A7AFB5;}
	.st3{fill:#34373A;}
	.st4{fill:none;}
	.st5{fill:#FFE448;}
	.st6{fill:#F48B00;}
	.st7{display:none;fill:#FFE448;}
	.st8{fill:none;stroke:#34373A;stroke-width:0.25;stroke-miterlimit:10;}
	.st9{fill:#F4C356;}
	.st10{fill:#FFFFFF;}
	.st11{fill:#5E5E5E;}
	.st12{fill:#868687;}
	.st13{fill:#64899B;}
	.st14{fill:#B9CCD6;}
	.st15{fill:#69777F;}
	.st16{fill:#8499A3;}
	.st17{fill:#ADCDE0;}
	.st18{fill:#577593;}
	.st19{fill:#C0D9E2;}
	.st20{fill:#316A82;}
	.st21{fill:#606060;}
	.st22{opacity:0.83;fill:#577593;}
	.st23{fill:#878787;}
	.st24{fill:#8D9AA0;}
</style>
<g id="Snow">
	<g id="flake1_3_">
		<g>
			<path class="st13" d="M4.73,9.52l0.53,0.55l0.12-0.12l0.25-0.23L5.03,9.1l0.78-0.38L5.58,8.26L4.8,8.63L4.7,7.76L4.36,7.82
				L4.19,7.83l0.1,0.76l0.02,0.12L3.59,8.58L3.51,8.96l0.85,0.16L3.95,9.91l0.35,0.19l0.35-0.66L4.73,9.52z"/>
			<polygon class="st13" points="4.24,10.23 3.79,9.99 4.2,9.2 3.35,9.04 3.45,8.54 3.59,8.58 3.51,8.96 4.37,9.12 3.95,9.91
				4.31,10.1 			"/>
		</g>
		<g>
			<path class="st14" d="M4.75,9.35L5.28,9.9L5.4,9.78l0.25-0.23l-0.6-0.62l0.78-0.38L5.6,8.09L4.82,8.47l-0.1-0.87L4.37,7.65
				L4.21,7.67l0.1,0.76l0.02,0.12L3.61,8.41L3.53,8.79l0.85,0.16L3.97,9.74l0.35,0.19l0.35-0.66L4.75,9.35z"/>
			<polygon class="st14" points="4.26,10.06 3.81,9.82 4.22,9.03 3.37,8.87 3.47,8.38 3.61,8.41 3.53,8.79 4.38,8.95 3.97,9.74
				4.32,9.93 			"/>
		</g>
	</g>
	<g id="flake2">
		<g id="flake1_2_">
			<g>
				<path class="st13" d="M10.81,8.52l0.61-0.69L11.27,7.7l-0.31-0.28l-0.69,0.78l-0.53-0.9L9.21,7.63l0.53,0.9L8.7,8.73l0.1,0.41
					l0.04,0.2l0.91-0.19l0.14-0.03l-0.1,0.88l0.47,0.05L10.37,9l0.99,0.42l0.19-0.45l-0.83-0.36L10.81,8.52z"/>
				<polygon class="st13" points="11.72,9.04 11.47,9.61 10.48,9.19 10.37,10.23 9.76,10.17 9.79,9.99 10.26,10.04 10.37,9
					11.36,9.43 11.55,8.98 				"/>
			</g>
			<g>
				<path class="st14" d="M10.61,8.52l0.61-0.69l-0.16-0.13l-0.31-0.28L10.07,8.2L9.54,7.3L9,7.62l0.53,0.9L8.49,8.73l0.1,0.41
					l0.04,0.2l0.91-0.19l0.14-0.03l-0.1,0.88l0.47,0.05L10.16,9l0.99,0.42l0.19-0.45l-0.83-0.36L10.61,8.52z"/>
				<polygon class="st14" points="11.51,9.04 11.27,9.61 10.28,9.18 10.17,10.23 9.56,10.16 9.58,9.99 10.06,10.04 10.16,9
					11.16,9.42 11.35,8.97 				"/>
			</g>
		</g>
	</g>
	<g id="flake3_2_">
		<g>
			<path class="st13" d="M19.23,7.1l-0.81-0.46l-0.09,0.18l-0.21,0.36l0.91,0.51l-0.77,0.71l0.42,0.46l0.77-0.71l0.42,0.98
				l0.38-0.19l0.19-0.08l-0.38-0.85l-0.06-0.13l0.88-0.09l-0.05-0.47l-1.04,0.11L20,6.37l-0.48-0.1l-0.18,0.89L19.23,7.1z"/>
			<polygon class="st13" points="19.55,6.1 20.16,6.22 19.95,7.28 21,7.17 21.06,7.78 20.88,7.79 20.84,7.32 19.79,7.43 20,6.37
				19.53,6.27 			"/>
		</g>
		<g>
			<path class="st14" d="M19.27,7.3l-0.81-0.46l-0.09,0.18l-0.21,0.36l0.91,0.51L18.3,8.59l0.42,0.46l0.77-0.71l0.42,0.98l0.38-0.19
				l0.19-0.08L20.1,8.21l-0.06-0.13l0.88-0.09l-0.05-0.47l-1.04,0.11l0.21-1.06l-0.48-0.1l-0.18,0.89L19.27,7.3z"/>
			<polygon class="st14" points="19.59,6.3 20.2,6.42 19.99,7.48 21.03,7.37 21.09,7.98 20.92,7.99 20.87,7.52 19.83,7.63
				20.04,6.57 19.56,6.47 			"/>
		</g>
	</g>
	<g id="flake4_2_">
		<g>
			<path class="st13" d="M15.32,7.45l0.62-0.2l-0.05-0.13L15.8,6.85l-0.69,0.23V6.35h-0.44v0.73l-0.7-0.25l-0.09,0.28l-0.05,0.13
				l0.62,0.21l0.09,0.03l-0.37,0.49l0.26,0.2l0.44-0.59l0.44,0.61l0.27-0.2l-0.37-0.51L15.32,7.45z"/>
			<polygon class="st13" points="15.68,8.09 15.33,8.34 14.88,7.74 14.45,8.32 14.1,8.07 14.18,7.97 14.45,8.17 14.88,7.59
				15.33,8.19 15.6,7.99 			"/>
		</g>
		<g>
			<path class="st14" d="M15.2,7.38l0.62-0.2l-0.05-0.13l-0.09-0.27L14.99,7V6.27h-0.44V7l-0.7-0.25l-0.09,0.28l-0.05,0.13
				l0.62,0.21l0.09,0.03L14.06,7.9l0.26,0.2l0.44-0.59l0.44,0.61l0.27-0.2l-0.37-0.51L15.2,7.38z"/>
			<polygon class="st14" points="15.56,8.01 15.21,8.27 14.76,7.66 14.33,8.25 13.98,7.99 14.06,7.9 14.33,8.1 14.76,7.51
				15.21,8.12 15.48,7.92 			"/>
		</g>
	</g>
	<path class="st15 scloud" d="M8.51,7.68c0,0.68,0.28,1.32,0.73,1.77c0.26,0.27,0.59,0.47,0.95,0.6h9.56c0.99,0,1.9-0.6,2.31-1.44l0,0
		c0.27-0.41,0.39-0.89,0.39-1.41c0-1.09-0.7-2.03-1.66-2.37c-0.13-0.05-0.25-0.1-0.38-0.11c-0.16-0.03-0.32-0.05-0.49-0.05
		c-0.24,0-0.47,0.03-0.68,0.1c0.01-0.09,0.01-0.16,0.01-0.24c0-1.27-0.81-2.34-1.95-2.74c-0.3-0.11-0.62-0.16-0.95-0.16
		c-0.98,0-1.86,0.49-2.38,1.23c-0.07,0.1-0.13,0.21-0.2,0.31c-0.24-0.18-0.5-0.32-0.8-0.41c-0.01,0-0.02,0-0.02,0
		c-1.35,0.13-2.43,1.18-2.62,2.52C9.3,5.55,8.51,6.53,8.51,7.68z"/>
	<path class="st16 scloud" d="M12.84,8.85c0,0.55-0.22,1.07-0.59,1.42c-0.21,0.21-0.48,0.38-0.77,0.48H3.73c-0.56,0-1.09-0.24-1.46-0.62
		c0.03,0.01,0.06,0.01,0.09,0.01h8.38c0.31-0.11,0.61-0.29,0.83-0.53c0.4-0.39,0.65-0.95,0.65-1.55c0-0.29-0.06-0.57-0.17-0.82
		C12.52,7.62,12.84,8.2,12.84,8.85z"/>
	<path class="st17 scloud" d="M12.22,8.08c0,0.59-0.25,1.16-0.65,1.55c-0.22,0.24-0.52,0.42-0.83,0.53H2.36c-0.03,0-0.06,0-0.09-0.01
		c-0.17-0.16-0.3-0.35-0.4-0.55C1.64,9.27,1.54,8.87,1.54,8.45c0-0.87,0.57-1.64,1.35-1.91c0.1-0.04,0.2-0.08,0.31-0.09
		c0.12-0.03,0.26-0.04,0.39-0.04c0.19,0,0.38,0.02,0.55,0.08c-0.01-0.08-0.01-0.13-0.01-0.2c0-1.03,0.66-1.9,1.58-2.21
		c0.25-0.09,0.5-0.13,0.77-0.13c0.8,0,1.5,0.39,1.92,1C8.47,5.02,8.52,5.1,8.57,5.18c0.19-0.15,0.4-0.26,0.65-0.34h0.01
		c0.45,0.04,0.85,0.2,1.19,0.47c0.31,0.22,0.56,0.53,0.72,0.87c0.11,0.21,0.18,0.45,0.21,0.7c0.26,0.07,0.49,0.19,0.7,0.37
		C12.16,7.51,12.22,7.79,12.22,8.08z"/>
	<g id="Eyes_6_" class="scloud">
		<circle class="st3" cx="14.18" cy="5.87" r="0.64"/>
		<circle class="st3" cx="17.56" cy="5.87" r="0.64"/>
	</g>
	<g id="Eyes_5_" class="scloud">
		<circle class="st3" cx="5.95" cy="7.26" r="0.35"/>
		<circle class="st3" cx="7.81" cy="7.26" r="0.35"/>
	</g>
</g>

</svg>
