<?xml version="1.0" encoding="utf-8"?>
<!-- Generator: Adobe Illustrator 23.0.3, SVG Export Plug-In . SVG Version: 6.00 Build 0)  -->
<svg version="1.1" xmlns="http://www.w3.org/2000/svg" xmlns:xlink="http://www.w3.org/1999/xlink" x="0px" y="0px"
   viewBox="0 0 24 24" style="enable-background:new 0 0 24 24;" xml:space="preserve">
<style type="text/css">
  .st0{fill:#2E4049;}
  .st1{fill:#70757B;}
  .st2{fill:#A7AFB5;}
  .st3{fill:#34373A;}
  .st4{fill:none;}
  .st5{fill:#FFE448;}
  .st6{fill:#F48B00;}
  .st7{display:none;fill:#FFE448;}
  .st8{fill:none;stroke:#34373A;stroke-width:0.25;stroke-miterlimit:10;}
  .st9{fill:#F4C356;}
  .st10{fill:#FFFFFF;}
  .st11{fill:#5E5E5E;}
  .st12{fill:#6EA09F;}
  .st13{fill:#868687;}
  .st14{fill:#64899B;}
  .st15{fill:#B9CCD6;}
  .st16{fill:#69777F;}
  .st17{fill:#8499A3;}
  .st18{fill:#ADCDE0;}
  .st19{fill:#577593;}
  .st20{fill:#C0D9E2;}
  .st21{fill:#316A82;}
  .st22{fill:#606060;}
  .st23{opacity:0.83;fill:#577593;}
  .st24{fill:#878787;}
  .st25{fill:#8D9AA0;}
</style>
<g id="Wind">
  <g id="Cloud_2_">
    <path class="st19" d="M15.68,12.71c0,0.68-0.28,1.31-0.75,1.76c-0.46,0.47-1.09,0.75-1.76,0.75h-0.34
      c0.36-0.13,0.69-0.33,0.95-0.6c0.46-0.46,0.73-1.09,0.73-1.76c0-1.14-0.78-2.13-1.84-2.41c-0.18-1.34-1.27-2.39-2.61-2.52
      c0.28-0.1,0.59-0.16,0.9-0.16c1.45,0,2.67,1.09,2.87,2.53C14.9,10.58,15.68,11.57,15.68,12.71z"/>
    <path class="st20" d="M14.51,12.86c0,0.68-0.28,1.31-0.73,1.76c-0.26,0.27-0.59,0.47-0.95,0.6H3.28c-0.99,0-1.9-0.6-2.3-1.44l0,0
      c-0.27-0.41-0.39-0.89-0.39-1.41c0-1.09,0.69-2.02,1.65-2.36c0.13-0.05,0.25-0.1,0.38-0.11c0.16-0.03,0.32-0.05,0.49-0.05
      c0.24,0,0.47,0.03,0.68,0.1C3.78,9.85,3.78,9.78,3.78,9.7c0-1.27,0.81-2.34,1.95-2.73C6.03,6.86,6.35,6.8,6.68,6.8
      c0.98,0,1.86,0.49,2.38,1.23c0.07,0.1,0.13,0.21,0.2,0.31c0.24-0.18,0.5-0.32,0.8-0.41c0.01,0,0.02,0,0.02,0
      c1.34,0.13,2.43,1.17,2.61,2.52C13.73,10.73,14.51,11.71,14.51,12.86z"/>
    <g id="Eyes_3_">
      <circle class="st3" cx="7.37" cy="11.3" r="0.62"/>
      <circle class="st3" cx="10.61" cy="10.89" r="0.62"/>
      <circle id="mouth" class="st3" cx="9.38" cy="12.9" r="0.62"/>
    </g>
  </g>
  <g id="wind3">
    <path class="st3" d="M13.83,12.31c-0.48,0-0.95,0-1.43,0c-0.21,0-0.34-0.18-0.26-0.36c0.05-0.12,0.15-0.16,0.27-0.16
      c0.41,0,0.82,0,1.22,0c0.52,0,1.05,0,1.57,0c0.15,0,0.28-0.04,0.39-0.13c0.15-0.12,0.22-0.31,0.17-0.49
      c-0.06-0.19-0.19-0.3-0.38-0.33c-0.19-0.03-0.45,0.11-0.44,0.37c0.01,0.17-0.1,0.28-0.25,0.28c-0.15,0-0.25-0.1-0.26-0.27
      c-0.02-0.5,0.39-0.91,0.91-0.9c0.42,0.01,0.77,0.27,0.9,0.66c0.13,0.38-0.02,0.82-0.34,1.07c-0.21,0.16-0.45,0.24-0.71,0.24
      C14.74,12.31,14.28,12.31,13.83,12.31C13.83,12.31,13.83,12.31,13.83,12.31z"/>
  </g>
  <path id="wind2" class="st3" d="M13.26,13.16c0.5,0,1,0,1.49,0c0.45,0,0.82,0.27,0.9,0.68c0.07,0.32-0.03,0.6-0.29,0.79
    c-0.25,0.19-0.52,0.21-0.8,0.07c-0.27-0.14-0.41-0.46-0.32-0.73c0.04-0.12,0.15-0.18,0.27-0.16c0.12,0.03,0.21,0.15,0.17,0.26
    c-0.05,0.15,0.1,0.28,0.26,0.25c0.21-0.04,0.33-0.28,0.22-0.48c-0.07-0.13-0.18-0.2-0.32-0.22c-0.07-0.01-0.14-0.01-0.2-0.01
    c-0.98,0-1.96,0-2.95,0c-0.13,0-0.22-0.06-0.25-0.16c-0.04-0.15,0.06-0.29,0.23-0.29c0.36,0,0.72,0,1.08,0
    C12.93,13.16,13.1,13.16,13.26,13.16z"/>
  <path id="wind1" class="st3" d="M15.61,13.02c-0.63,0-1.27,0-1.9,0c-0.05,0-0.11,0-0.16-0.02c-0.11-0.04-0.16-0.15-0.14-0.26
    c0.02-0.12,0.11-0.2,0.24-0.2c0.23,0,0.47,0,0.7,0c1.05,0,2.1,0,3.15,0c0.2,0,0.37-0.08,0.46-0.26c0.07-0.13,0.05-0.26-0.03-0.37
    c-0.08-0.11-0.2-0.16-0.34-0.14c-0.1,0.02-0.17,0.07-0.2,0.16c-0.02,0.06-0.01,0.11,0.02,0.16c0.1,0.13,0.08,0.27-0.03,0.36
    c-0.11,0.09-0.26,0.06-0.36-0.06c-0.22-0.27-0.16-0.7,0.12-0.93c0.47-0.39,1.22-0.1,1.32,0.51c0.09,0.52-0.29,1.02-0.83,1.06
    c-0.34,0.02-0.68,0.01-1.02,0.01C16.29,13.02,15.95,13.02,15.61,13.02C15.61,13.02,15.61,13.02,15.61,13.02z"/>
</g>
</svg>
